# xmcd
#
# Track frame offsets:
#	150
#	16652
#	32627
#	48565
#	62000
#	77547
#	95507
#	110875
#	125857
#	138805
#
# Disc length: 2030 seconds
#
# Revision: 0
# Processed by: cddbd v1.4PL0 Copyright (c) Steve Scherf et al.
# Submitted via: dBpowerAMP V4.0
#
DISCID=8107ec0a
DTITLE=BB Shawn - Finding My Way
DYEAR=1900
DGENRE=Blues
TTITLE0=I Shot The Sheriff
TTITLE1=Hope Joana
TTITLE2=Coconut
TTITLE3=Henehene
TTITLE4=Railway Station
TTITLE5=Vaya Con Dias
TTITLE6=Why Walk When You Can Fly
TTITLE7=Golden Stallion
TTITLE8=Friends
TTITLE9=Day-O (Banana Boat Song)
EXTD=
EXTT0=
EXTT1=
EXTT2=
EXTT3=
EXTT4=
EXTT5=
EXTT6=
EXTT7=
EXTT8=
EXTT9=
PLAYORDER=
